<?xml version="1.0" encoding="UTF-8"?>
<svg viewBox="0 0 1892 505" xmlns="http://www.w3.org/2000/svg">
<path d="m300.08 234.87c-0.502-55.729 45.642-82.841 47.752-84.103-26.133-38.092-66.639-43.296-80.873-43.711-34.02-3.579-67.02 20.351-84.35 20.351-17.676 0-44.363-20.005-73.125-19.417-37.012 0.57-71.638 21.994-90.628 55.261-39.191 67.832-9.9622 167.51 27.586 222.34 18.783 26.87 40.731 56.835 69.459 55.78 28.105-1.141 38.603-17.896 72.519-17.896 33.605 0 43.464 17.896 72.762 17.222 30.163-0.467 49.154-26.974 67.279-54.068 21.706-30.761 30.423-61.089 30.769-62.645-0.692-0.242-58.562-22.34-59.15-89.117zm-55.346-163.88c15.116-18.899 25.459-44.61 22.588-70.702-21.879 0.96828-49.24 15.13-64.996 33.613-13.94 16.288-26.393 42.985-23.176 68.092 24.577 1.833 49.811-12.398 65.584-31.003z" fill="#fff"/>
<path d="m707.16 437.52h-39.278l-21.515-67.59h-74.786l-20.495 67.59h-38.24l74.111-230.11h45.763l74.44 230.11zm-67.279-95.947-19.458-60.086c-2.058-6.138-5.932-20.593-11.605-43.348h-0.692c-2.283 9.786-5.932 24.242-10.93 43.348l-19.129 60.086h61.814zm257.49 10.945c0 28.218-7.662 50.524-23.003 66.898-13.732 14.576-30.803 21.856-51.16 21.856-21.982 0-37.79-7.833-47.389-23.533v87.059h-36.874v-178.67c0-17.723-0.467-35.896-1.366-54.535h32.429l2.058 26.299h0.692c12.297-19.815 30.958-29.723 56.002-29.723 19.579 0 35.923 7.729 48.998 23.204 13.058 15.51 19.613 35.879 19.613 61.141zm-37.566 1.349c0-16.15-3.632-29.464-10.93-39.96-7.973-10.91-18.679-16.374-32.101-16.374-9.097 0-17.364 3.043-24.749 9.043-7.403 6.052-12.245 13.954-14.511 23.74-1.012 3.66-1.586 7.427-1.712 11.222v27.683c0 12.051 3.701 22.236 11.103 30.57 7.403 8.3 17.019 12.467 28.849 12.467 13.888 0 24.698-5.378 32.429-16.046 7.748-10.703 11.622-24.813 11.622-42.345zm228.45-1.349c0 28.218-7.66 50.524-23 66.898-13.75 14.576-30.8 21.856-51.18 21.856-21.979 0-37.787-7.833-47.386-23.533v87.059h-36.874v-178.67c0-17.723-0.467-35.896-1.366-54.535h32.429l2.058 26.299h0.692c12.28-19.815 30.941-29.723 56.007-29.723 19.56 0 35.9 7.729 49.01 23.204 13.04 15.51 19.61 35.879 19.61 61.141zm-37.58 1.349c0-16.15-3.65-29.464-10.95-39.96-7.97-10.91-18.64-16.374-32.06-16.374-9.1 0-17.368 3.043-24.787 9.043-7.403 6.052-12.228 13.954-14.494 23.74-1.124 4.565-1.729 8.283-1.729 11.222v27.683c0 12.051 3.718 22.236 11.086 30.57 7.402 8.282 17.019 12.467 28.884 12.467 13.9 0 24.71-5.378 32.43-16.046 7.75-10.703 11.62-24.813 11.62-42.345zm251.01 19.106c0 19.59-6.85 35.515-20.46 47.809-14.98 13.418-35.89 20.144-62.7 20.144-24.76 0-44.62-4.772-59.6-14.334l8.53-30.726c16.17 9.579 33.93 14.351 53.27 14.351 13.9 0 24.71-3.147 32.43-9.389 7.73-6.259 11.64-14.628 11.64-25.071 0-9.355-3.24-17.187-9.58-23.568-6.39-6.363-16.94-12.294-31.76-17.74-40.3-15.026-60.46-37.003-60.46-65.913 0-18.881 7.12-34.339 21.34-46.426 14.22-12.069 33.07-18.103 56.52-18.103 20.95 0 38.4 3.648 52.25 10.928l-9.25 30.051c-13.04-7.055-27.76-10.582-44.23-10.582-13 0-23.21 3.199-30.51 9.562-6.14 5.689-9.25 12.622-9.25 20.853 0 9.077 3.55 16.616 10.6 22.53 6.13 5.446 17.3 11.377 33.45 17.74 19.82 7.988 34.39 17.291 43.71 27.977 9.39 10.685 14.06 24.017 14.06 39.907zm122.23-73.711h-40.65v80.558c0 20.49 7.16 30.709 21.52 30.709 6.59 0 12.05-0.554 16.38-1.712l1.02 27.994c-7.27 2.714-16.83 4.08-28.68 4.08-14.56 0-25.94-4.443-34.16-13.331-8.18-8.887-12.29-23.775-12.29-44.731v-83.636h-24.22v-27.666h24.22v-30.38l36.21-10.927v41.307h40.65v27.735zm183.02 53.93c0 25.504-7.3 46.443-21.87 62.818-15.23 16.858-35.5 25.262-60.77 25.262-24.39 0-43.78-8.075-58.24-24.207-14.45-16.167-21.68-36.536-21.68-61.106 0-25.712 7.47-46.772 22.36-63.146 14.93-16.392 35.02-24.588 60.29-24.588 24.35 0 43.91 8.092 58.72 24.242 14.15 15.665 21.19 35.896 21.19 60.725zm-38.23 0.847c0-15.198-3.28-28.236-9.87-39.146-7.73-13.176-18.8-19.764-33.14-19.764-14.77 0-26.1 6.588-33.81 19.764-6.61 10.91-9.9 24.173-9.9 39.838 0 15.216 3.29 28.288 9.9 39.164 7.97 13.175 19.09 19.763 33.5 19.763 14.09 0 25.15-6.726 33.14-20.092 6.78-11.17 10.18-24.293 10.18-39.527zm158.14-50.022c-3.84-0.692-7.73-1.034-11.63-1.02-12.97 0-23 4.876-30.06 14.697-6.12 8.645-9.2 19.573-9.2 32.766v87.06h-36.87v-113.67c0.03-17.418-0.33-34.834-1.07-52.236h32.11l1.35 31.746h1.02c3.91-10.911 10.03-19.712 18.44-26.299 7.69-5.757 17.04-8.874 26.65-8.888 3.41 0 6.49 0.242 9.22 0.674l0.04 35.17zm164.91 42.691c0.09 5.604-0.36 11.204-1.35 16.72h-110.62c0.41 16.392 5.77 28.945 16.05 37.591 9.32 7.711 21.37 11.584 36.18 11.584 16.38 0 31.32-2.593 44.76-7.832l5.78 25.573c-15.71 6.847-34.25 10.253-55.64 10.253-25.74 0-45.94-7.573-60.64-22.685-14.67-15.13-22.02-35.464-22.02-60.933 0-25.003 6.83-45.838 20.51-62.455 14.32-17.74 33.68-26.61 58.03-26.61 23.92 0 42.03 8.87 54.33 26.61 9.73 14.058 14.63 31.487 14.63 52.184zm-35.16-9.562c0.26-10.945-2.17-20.368-7.16-28.339-6.39-10.271-16.21-15.389-29.37-15.389-12.06 0-21.88 4.997-29.35 15.025-6.14 7.972-9.79 17.551-10.92 28.669l76.8 0.034z" fill="#fff"/>
<path d="m560.94 126.06c-10.256 0-19.128-0.502-26.513-1.349v-111.25c10.329-1.5952 20.766-2.3815 31.218-2.3516 42.287 0 61.762 20.801 61.762 54.708 0 39.112-23.003 60.242-66.467 60.242zm6.192-100.68c-5.707 0-10.567 0.3459-14.597 1.1758v84.569c2.179 0.346 6.365 0.502 12.245 0.502 27.707 0 43.481-15.77 43.481-45.302 0-26.334-14.269-40.945-41.129-40.945zm120.96 101.53c-23.833 0-39.277-17.792-39.277-41.948 0-25.176 15.773-43.123 40.626-43.123 23.488 0 39.278 16.945 39.278 41.792 0 25.487-16.275 43.279-40.627 43.279zm0.692-71.826c-13.092 0-21.481 12.242-21.481 29.36 0 16.789 8.562 29.031 21.308 29.031 12.747 0 21.308-13.089 21.308-29.377 0-16.599-8.388-29.014-21.135-29.014zm175.84-11.568-25.511 81.544h-16.621l-10.567-35.412c-2.628-8.6619-4.816-17.451-6.555-26.334h-0.346c-1.332 8.8875-3.857 17.792-6.538 26.334l-11.242 35.412h-16.794l-24.006-81.544h18.627l9.236 38.766c2.179 9.2333 4.013 17.948 5.535 26.179h0.346c1.331-6.865 3.511-15.441 6.71-26.006l11.588-38.922h14.77l11.087 38.092c2.681 9.2333 4.86 18.294 6.555 26.853h0.484c1.176-8.386 3.027-17.291 5.535-26.853l9.91-38.092 17.797-0.0173zm93.914 81.544h-18.126v-46.824c0-14.421-5.534-21.648-16.448-21.648-10.74 0-18.125 9.2333-18.125 19.971v48.501h-18.126v-58.236c0-7.2103-0.173-14.939-0.674-23.325h15.946l0.848 12.588h0.501c4.877-8.7146 14.77-14.248 25.857-14.248 17.122 0 28.364 13.089 28.364 34.392l-0.017 48.83zm49.982 0h-18.141v-118.96h18.141v118.96zm66.09 1.85c-23.82 0-39.28-17.792-39.28-41.948 0-25.176 15.77-43.123 40.61-43.123 23.5 0 39.28 16.945 39.28 41.792 0.01 25.487-16.28 43.279-40.61 43.279zm0.67-71.826c-13.09 0-21.48 12.242-21.48 29.36 0 16.789 8.58 29.031 21.29 29.031 12.77 0 21.31-13.089 21.31-29.377 0.02-16.599-8.35-29.014-21.12-29.014zm111.4 69.976-1.31-9.389h-0.49c-5.53 7.556-13.61 11.239-23.85 11.239-14.61 0-24.99-10.236-24.99-24 0-20.126 17.45-30.535 47.67-30.535v-1.5043c0-10.738-5.69-16.115-16.94-16.115-8.04 0-15.09 2.023-21.3 6.0518l-3.69-11.913c7.54-4.7031 16.95-7.0547 28-7.0547 21.31 0 32.07 11.239 32.07 33.734v30.035c0 8.23 0.36 14.61 1.18 19.469l-16.35-0.017zm-2.49-40.616c-20.13 0-30.23 4.876-30.23 16.443 0 8.559 5.2 12.744 12.43 12.744 9.22 0 17.8-7.038 17.8-16.6v-12.588zm105.68 40.616-0.85-13.089h-0.5c-5.21 9.89-13.96 14.939-26.19 14.939-19.66 0-34.23-17.291-34.23-41.619 0-25.504 15.1-43.469 35.72-43.469 10.91 0 18.64 3.683 23 11.084h0.37v-46.806h18.14v96.984c0 7.885 0.19 15.268 0.67 21.977h-16.13zm-2.68-47.982c0-11.412-7.56-21.147-19.1-21.147-13.44 0-21.65 11.913-21.65 28.686 0 16.444 8.52 27.7 21.29 27.7 11.4 0 19.46-9.907 19.46-21.648v-13.591zm133.17 49.832c-23.82 0-39.26-17.792-39.26-41.948 0-25.176 15.77-43.123 40.61-43.123 23.5 0 39.28 16.945 39.28 41.792 0.01 25.487-16.26 43.279-40.63 43.279zm0.67-71.826c-13.07 0-21.46 12.242-21.46 29.36 0 16.789 8.56 29.031 21.29 29.031 12.77 0 21.31-13.089 21.31-29.377 0.03-16.599-8.35-29.014-21.14-29.014zm137.43 69.976h-18.14v-46.824c0-14.421-5.53-21.648-16.45-21.648-10.74 0-18.1 9.2333-18.1 19.971v48.501h-18.15v-58.236c0-7.2103-0.17-14.939-0.67-23.325h15.94l0.85 12.588h0.5c4.86-8.7146 14.77-14.265 25.84-14.265 17.13 0 28.38 13.089 28.38 34.392v48.847zm121.95-67.953h-19.94v39.596c0 10.08 3.5 15.112 10.55 15.112 3.2 0 5.88-0.346 8.05-0.847l0.5 13.763c-3.51 1.349-8.22 2.023-14.06 2.023-14.29 0-22.83-7.884-22.83-28.53v-41.118h-11.9v-13.591h11.9v-14.939l17.79-5.3775v20.299h19.94v13.608zm95.96 67.953h-18.11v-46.478c0-14.594-5.52-21.977-16.45-21.977-9.39 0-18.14 6.3803-18.14 19.297v49.158h-18.11v-118.96h18.11v48.985h0.36c5.71-8.8875 13.98-13.262 24.53-13.262 17.26 0 27.81 13.418 27.81 34.737v48.501zm98.31-36.415h-54.4c0.35 15.441 10.57 24.156 25.7 24.156 8.05 0 15.45-1.349 21.99-3.856l2.82 12.587c-7.72 3.355-16.8 5.032-27.37 5.032-25.51 0-40.61-16.115-40.61-41.1 0-25.002 15.47-43.798 38.57-43.798 20.84 0 33.92 15.441 33.92 38.766 0.12 2.7527-0.09 5.5096-0.62 8.2131zm-16.62-12.916c0-12.588-6.35-21.475-17.94-21.475-10.41 0-18.64 9.0604-19.82 21.475h37.76z" fill="#fff"/>
</svg>
