<svg width="1682" height="395" viewBox="0 0 1682 395" fill="none" xmlns="http://www.w3.org/2000/svg">
<path d="M543.88 48.5733C543.88 60.1999 540.973 70.3733 533.707 77.6399C524.987 86.3599 514.813 90.7199 501.733 90.7199C488.653 90.7199 478.48 86.3599 469.76 77.6399C461.04 68.9199 456.68 58.7466 456.68 45.6666C456.68 32.5866 461.04 22.4133 469.76 13.6933C478.48 4.97328 488.653 0.613281 501.733 0.613281C507.547 0.613281 513.36 2.06661 519.173 4.97328C524.987 7.87994 529.347 10.7866 532.253 15.1466L524.987 22.4133C519.173 15.1466 511.907 12.2399 501.733 12.2399C493.013 12.2399 484.294 15.1466 478.48 22.4133C471.214 28.2266 468.307 36.9466 468.307 47.12C468.307 57.2933 471.214 66.0133 478.48 71.8266C485.747 77.6399 493.013 81.9999 501.733 81.9999C511.907 81.9999 519.173 79.0933 526.44 71.8266C530.8 67.4666 533.707 61.6533 533.707 54.3866H501.733V42.7599H543.88V48.5733ZM610.733 12.2399H571.493V39.8533H607.827V50.0266H571.493V77.6399H610.733V89.2666H559.867V2.06661H610.733V12.2399ZM658.693 89.2666H647.067V12.2399H622.36V2.06661H683.4V12.2399H658.693V89.2666ZM725.547 89.2666V2.06661H737.173V89.2666H725.547ZM786.587 89.2666H774.96V12.2399H750.253V2.06661H809.84V12.2399H785.133V89.2666H786.587ZM924.653 77.6399C915.933 86.3599 905.76 90.7199 892.68 90.7199C879.6 90.7199 869.427 86.3599 860.707 77.6399C851.987 68.9199 847.627 58.7466 847.627 45.6666C847.627 32.5866 851.987 22.4133 860.707 13.6933C869.427 4.97328 879.6 0.613281 892.68 0.613281C905.76 0.613281 915.933 4.97328 924.653 13.6933C933.373 22.4133 937.733 32.5866 937.733 45.6666C937.733 58.7466 933.373 68.9199 924.653 77.6399ZM869.427 70.3733C875.24 76.1866 883.96 80.5466 892.68 80.5466C901.4 80.5466 910.12 77.6399 915.933 70.3733C921.747 64.5599 926.107 55.8399 926.107 45.6666C926.107 35.4933 923.2 26.7733 915.933 20.9599C910.12 15.1466 901.4 10.7866 892.68 10.7866C883.96 10.7866 875.24 13.6933 869.427 20.9599C863.614 26.7733 859.253 35.4933 859.253 45.6666C859.253 55.8399 862.16 64.5599 869.427 70.3733ZM953.72 89.2666V2.06661H966.8L1008.95 70.3733V2.06661H1020.57V89.2666H1008.95L963.894 18.0533V89.2666H953.72Z" fill="white" stroke="white" stroke-width="1.18519" stroke-miterlimit="10"/>
<path d="M844.72 217.16C809.84 217.16 782.227 243.32 782.227 279.653C782.227 314.533 809.84 342.147 844.72 342.147C879.6 342.147 907.213 315.987 907.213 279.653C907.213 241.867 879.6 217.16 844.72 217.16ZM844.72 315.987C825.827 315.987 809.84 300 809.84 278.2C809.84 256.4 825.827 240.413 844.72 240.413C863.613 240.413 879.6 254.947 879.6 278.2C879.6 300 863.613 315.987 844.72 315.987ZM709.56 217.16C674.68 217.16 647.067 243.32 647.067 279.653C647.067 314.533 674.68 342.147 709.56 342.147C744.44 342.147 772.053 315.987 772.053 279.653C772.053 241.867 744.44 217.16 709.56 217.16ZM709.56 315.987C690.667 315.987 674.68 300 674.68 278.2C674.68 256.4 690.667 240.413 709.56 240.413C728.453 240.413 744.44 254.947 744.44 278.2C744.44 300 728.453 315.987 709.56 315.987ZM548.24 236.053V262.213H610.733C609.28 276.747 603.467 288.373 596.2 295.64C587.48 304.36 572.947 314.533 548.24 314.533C509 314.533 479.933 284.013 479.933 244.773C479.933 205.533 510.453 175.013 548.24 175.013C568.587 175.013 584.573 183.733 596.2 193.907L615.093 175.013C599.107 160.48 578.76 148.853 549.693 148.853C497.373 148.853 452.32 192.453 452.32 244.773C452.32 297.093 497.373 340.693 549.693 340.693C578.76 340.693 599.107 331.973 616.547 313.08C633.987 295.64 639.8 270.933 639.8 252.04C639.8 246.227 639.8 240.413 638.347 236.053H548.24ZM1208.05 256.4C1202.24 241.867 1187.71 217.16 1155.73 217.16C1123.76 217.16 1097.6 241.867 1097.6 279.653C1097.6 314.533 1123.76 342.147 1158.64 342.147C1186.25 342.147 1203.69 324.707 1209.51 314.533L1189.16 300C1181.89 310.173 1173.17 317.44 1158.64 317.44C1144.11 317.44 1135.39 311.627 1128.12 298.547L1210.96 263.667L1208.05 256.4ZM1123.76 276.747C1123.76 253.493 1142.65 240.413 1155.73 240.413C1165.91 240.413 1176.08 246.227 1178.99 253.493L1123.76 276.747ZM1055.45 336.333H1083.07V154.667H1055.45V336.333ZM1011.85 230.24C1004.59 222.973 992.96 215.707 978.427 215.707C947.907 215.707 918.84 243.32 918.84 278.2C918.84 313.08 946.453 339.24 978.427 339.24C992.96 339.24 1004.59 331.973 1010.4 324.707H1011.85V333.427C1011.85 356.68 998.773 369.76 978.427 369.76C962.44 369.76 950.813 358.133 947.907 347.96L924.653 358.133C931.92 374.12 949.36 394.467 979.88 394.467C1011.85 394.467 1038.01 375.573 1038.01 330.52V220.067H1011.85V230.24ZM979.88 315.987C960.987 315.987 945 300 945 278.2C945 256.4 960.987 240.413 979.88 240.413C998.773 240.413 1013.31 256.4 1013.31 278.2C1013.31 300 998.773 315.987 979.88 315.987ZM1334.49 154.667H1269.09V336.333H1296.71V268.027H1334.49C1365.01 268.027 1394.08 246.227 1394.08 211.347C1394.08 176.467 1365.01 154.667 1334.49 154.667ZM1335.95 241.867H1296.71V179.373H1335.95C1356.29 179.373 1367.92 196.813 1367.92 209.893C1366.47 225.88 1354.84 241.867 1335.95 241.867ZM1503.08 215.707C1482.73 215.707 1462.39 224.427 1455.12 243.32L1479.83 253.493C1485.64 243.32 1494.36 240.413 1504.53 240.413C1519.07 240.413 1532.15 249.133 1533.6 263.667V265.12C1529.24 262.213 1517.61 257.853 1505.99 257.853C1479.83 257.853 1453.67 272.387 1453.67 298.547C1453.67 323.253 1475.47 339.24 1498.72 339.24C1517.61 339.24 1526.33 330.52 1533.6 321.8H1535.05V336.333H1561.21V266.573C1558.31 234.6 1533.6 215.707 1503.08 215.707ZM1500.17 315.987C1491.45 315.987 1478.37 311.627 1478.37 300C1478.37 285.467 1494.36 281.107 1507.44 281.107C1519.07 281.107 1524.88 284.013 1532.15 286.92C1529.24 304.36 1514.71 315.987 1500.17 315.987ZM1652.77 220.067L1622.25 298.547H1620.8L1588.83 220.067H1559.76L1607.72 330.52L1580.11 391.56H1607.72L1681.84 220.067H1652.77ZM1408.61 336.333H1436.23V154.667H1408.61V336.333Z" fill="white"/>
<path d="M6.14658 9.33334C1.78658 13.6933 0.333252 20.96 0.333252 29.68V350.867C0.333252 359.587 3.23992 366.853 7.59992 371.213L9.05326 372.667L189.267 192.453V189.547L6.14658 9.33334Z" fill="url(#paint0_linear_104_26)"/>
<path d="M247.4 253.493L187.813 193.907V189.547L247.4 129.96L248.853 131.413L320.067 172.107C340.413 183.733 340.413 202.627 320.067 214.253L247.4 253.493Z" fill="url(#paint1_linear_104_26)"/>
<path d="M248.853 252.04L187.813 191L6.14648 372.667C13.4132 379.933 23.5865 379.933 36.6665 374.12L248.853 252.04Z" fill="url(#paint2_linear_104_26)"/>
<path d="M248.853 129.96L36.6665 9.33335C23.5865 2.06669 13.4132 3.52002 6.14648 10.7867L187.813 191L248.853 129.96Z" fill="url(#paint3_linear_104_26)"/>
<path opacity="0.2" d="M247.4 250.587L36.6665 369.76C25.0398 377.027 14.8665 375.573 7.59982 369.76L6.14648 371.213L7.59982 372.667C14.8665 378.48 25.0398 379.933 36.6665 372.667L247.4 250.587Z" fill="black"/>
<path opacity="0.12" d="M6.14658 369.76C1.78658 365.4 0.333252 358.133 0.333252 349.413V350.867C0.333252 359.587 3.23992 366.853 7.59992 371.213V369.76H6.14658ZM320.067 209.893L247.4 250.587L248.853 252.04L320.067 211.347C330.24 205.533 334.6 198.267 334.6 191C334.6 198.267 328.787 204.08 320.067 209.893Z" fill="black"/>
<path opacity="0.25" d="M36.6666 10.7866L320.067 172.107C328.787 177.92 334.6 183.733 334.6 191C334.6 183.733 330.24 176.467 320.067 170.653L36.6666 9.33331C16.3199 -2.29336 0.333252 6.42663 0.333252 29.68V31.1333C0.333252 9.33331 16.3199 -0.840027 36.6666 10.7866Z" fill="white"/>
<defs>
<linearGradient id="paint0_linear_104_26" x1="171.827" y1="26.9187" x2="-72.0864" y2="270.817" gradientUnits="userSpaceOnUse">
<stop stop-color="#00A0FF"/>
<stop offset="0.007" stop-color="#00A1FF"/>
<stop offset="0.26" stop-color="#00BEFF"/>
<stop offset="0.512" stop-color="#00D2FF"/>
<stop offset="0.76" stop-color="#00DFFF"/>
<stop offset="1" stop-color="#00E3FF"/>
</linearGradient>
<linearGradient id="paint1_linear_104_26" x1="346.721" y1="191.015" x2="-4.94237" y2="191.015" gradientUnits="userSpaceOnUse">
<stop stop-color="#FFE000"/>
<stop offset="0.409" stop-color="#FFBD00"/>
<stop offset="0.775" stop-color="#FFA500"/>
<stop offset="1" stop-color="#FF9C00"/>
</linearGradient>
<linearGradient id="paint2_linear_104_26" x1="215.819" y1="224.369" x2="-114.931" y2="555.118" gradientUnits="userSpaceOnUse">
<stop stop-color="#FF3A44"/>
<stop offset="1" stop-color="#C31162"/>
</linearGradient>
<linearGradient id="paint3_linear_104_26" x1="-38.9505" y1="-97.1088" x2="108.752" y2="50.5935" gradientUnits="userSpaceOnUse">
<stop stop-color="#32A071"/>
<stop offset="0.069" stop-color="#2DA771"/>
<stop offset="0.476" stop-color="#15CF74"/>
<stop offset="0.801" stop-color="#06E775"/>
<stop offset="1" stop-color="#00F076"/>
</linearGradient>
</defs>
</svg>
